<?xml version="1.0" encoding="utf-8"?><svg id="coffee" image-rendering="auto" baseProfile="basic" version="1.1" x="0px" y="0px" width="180" height="250" xmlns="http://www.w3.org/2000/svg" xmlns:xlink="http://www.w3.org/1999/xlink"><defs><filter id="filter3" filterUnits="objectBoundingBox" width="100%" height="100%" x="0%" y="0%"><feColorMatrix type="matrix" in="SourceGraphic" values="1 0 0 0 1 0 1 0 0 1 0 0 1 0 1 0 0 0 9999999999999.99 0" result="colorTrans"/></filter><g id="Symbol-1" overflow="visible"><path fill="#FFF" stroke="none" d="M36.1 0L0 0 0 36.25 36.1 36.25 36.1 0Z"/></g><g id="FlashAICB_ART_.__3CPath.__3E_4" overflow="visible"/></defs><g id="Scene-1" overflow="visible"><g id="cup" transform="translate(24.8 234.2)"><g id="FlashAICB_ART_.__3CPath.__3E_3" transform="translate(18.55 -11.7)"><path fill="#1E1D1D" stroke="none" d="M96.4 10Q112.95 8.3 112.95 5.85 112.95 3.4 96.4 1.7 79.9 0 56.5 0 33.05 0 16.55 1.7 0 3.4 0 5.85 0 8.3 16.55 10 33.05 11.7 56.5 11.7 79.9 11.7 96.4 10Z"/></g><path fill="#FFF" stroke="none" d="M19.05 -6.1L80.3 -6.1 93.2 -134.75 6.85 -134.75 19.05 -6.1Z"/><path fill="#232120" stroke="none" d="M97.15 -143.35L91.05 -143.85 91.05 -155.1Q69.65 -159.65 36.65 -157.85 26.4 -157.25 16.1 -156.15L7.95 -155.1 7.95 -143.15 2.1 -143.15 2.1 -139.6 0 -134.9 99.5 -135.15 97.15 -139.85 97.15 -143.35Z"/><use xlink:href="#FlashAICB_ART_.__3CPath.__3E_4" transform="translate(8.65 -111.2)"/><use xlink:href="#FlashAICB_ART_.__3CPath.__3E_4" transform="translate(91.25 -111.2)"/><g id="FlashAICB_ART_.__3CPath.__3E" transform="translate(8.7 -110.8)"><path fill="#25303B" stroke="none" d="M69.9 6.45Q57.9 9.1 41.3 9.1 24.7 9.1 12.7 6.45 .75 3.8 .05 0L5.8 58.5Q5.8 61.9 16.2 64.25 26.6 66.65 41.25 66.65 55.9 66.65 66.3 64.25 76.7 61.9 76.7 58.5L82.6 0Q81.85 3.8 69.9 6.45Z"/></g><path fill="#FCFCFC" stroke="none" d="M76.2 -74Q76.2 -84.7 68.65 -92.3 61.1 -99.85 50.35 -99.85 39.65 -99.85 32.1 -92.3 24.5 -84.7 24.5 -74 24.5 -63.3 32.1 -55.75 39.65 -48.15 50.35 -48.15 61.05 -48.15 68.65 -55.75 76.2 -63.3 76.2 -74Z"/><path fill="#FFF" stroke="none" d="M58.6 -95.3L40.95 -95.3 28.5 -82.85 28.5 -65.2 40.95 -52.7 58.65 -52.7 71.1 -65.2 71.1 -82.85 58.6 -95.3Z"/><path id="Layer6_0_1_STROKES" stroke="#1D1D1B" stroke-width=".6" stroke-linejoin="miter" stroke-linecap="butt" stroke-miterlimit="4" fill="none" d="M40.95 -95.3L58.6 -95.3 71.1 -82.85 71.1 -65.2 58.65 -52.7 40.95 -52.7 28.5 -65.2 28.5 -82.85 40.95 -95.3Z"/><path fill="#FFF" stroke="none" d="M58.1 -94.05L41.5 -94.05 29.75 -82.3 29.75 -65.7 41.5 -53.95 58.1 -53.95 69.85 -65.7 69.85 -82.3 58.1 -94.05Z"/><path id="Layer7_0_1_STROKES" stroke="#1D1D1B" stroke-width=".15" stroke-linejoin="miter" stroke-linecap="butt" stroke-miterlimit="4" fill="none" d="M41.5 -94.05L58.1 -94.05 69.85 -82.3 69.85 -65.7 58.1 -53.95 41.5 -53.95 29.75 -65.7 29.75 -82.3 41.5 -94.05Z"/><path fill="#1D1D1B" stroke="none" d="M37.35 -64Q37.15 -64.1 36.9 -64.1L36.2 -64.1 36.2 -64.05Q36.45 -64 36.45 -63.95L35.95 -62.3Q35.95 -62.25 35.7 -62.2L35.7 -62.15 36.95 -62.2Q37.3 -62.35 37.3 -62.75L37.2 -63.05 36.85 -63.2 37.1 -63.25Q37.4 -63.4 37.4 -63.75L37.35 -64M36.85 -64L37.1 -63.95 37.15 -63.75Q37.15 -63.25 36.6 -63.25L36.5 -63.25 36.7 -63.95 36.85 -64M36.4 -62.25Q36.25 -62.25 36.25 -62.3L36.45 -63.15 36.6 -63.15Q36.9 -63.15 36.95 -63L37 -62.8Q37 -62.25 36.4 -62.25Z"/><path fill="#1D1D1B" stroke="none" d="M37.9 -62.2Q37.65 -62.25 37.7 -62.4L38 -62.9 38.55 -62.95 38.55 -62.35 38.35 -62.2 38.3 -62.15 39.05 -62.15 39.05 -62.2 38.9 -62.25 38.8 -62.3 38.85 -64.15 38.8 -64.15 38.6 -64.1 38.6 -64.05 38.55 -63.95 37.6 -62.45Q37.45 -62.25 37.25 -62.2L37.25 -62.15 37.9 -62.15 37.9 -62.2M38.55 -63.05L38.1 -63 38.6 -63.85 38.55 -63.05Z"/><path fill="#1D1D1B" stroke="none" d="M40.8 -63.75L40.7 -64Q40.5 -64.1 40.3 -64.1L39.6 -64.1 39.55 -64.05 39.7 -64Q39.8 -64 39.8 -63.9L39.3 -62.35Q39.3 -62.25 39.2 -62.25L39.1 -62.2 39.05 -62.15 39.8 -62.15 39.8 -62.2 39.65 -62.25 39.6 -62.35 39.8 -63.1 40 -63.1Q40.3 -63 40.25 -62.75L40.2 -62.5Q40.1 -62.1 40.5 -62.1L40.65 -62.15 40.7 -62.2 40.6 -62.2Q40.4 -62.2 40.5 -62.45L40.5 -62.75Q40.6 -63.1 40.15 -63.15 40.8 -63.25 40.8 -63.75M40.15 -64L40.25 -64 40.45 -63.95 40.5 -63.75Q40.5 -63.2 39.95 -63.2L39.85 -63.2 40.05 -63.95 40.15 -64Z"/><path fill="#1D1D1B" stroke="none" d="M41.65 -61.4L41.65 -64.55 41.45 -64.55 41.45 -61.4 41.65 -61.4Z"/><path fill="#1D1D1B" stroke="none" d="M42.8 -64.1L42.8 -64.05 43 -63.95 42.75 -63.15Q42.65 -62.65 42.5 -62.35 42.5 -62.25 42.4 -62.25L42.3 -62.2 42.25 -62.15 43 -62.15 43 -62.2 42.8 -62.3 43 -63.1Q43.1 -63.15 43.1 -63.05L43.5 -62.1 43.7 -62.15 44 -62.15 44 -62.2 43.75 -62.3 43.35 -63.25 44.05 -63.9 44.4 -64.05 44.4 -64.1 43.8 -64.1 43.75 -64 43.9 -64Q43.95 -64 43.9 -63.95 43.45 -63.3 43.05 -63.2L43.25 -63.95 43.4 -64 43.5 -64.05 43.5 -64.1 42.8 -64.1Z"/><path fill="#1D1D1B" stroke="none" d="M44.6 -64.1L44.55 -64.05 44.7 -64 44.75 -63.9 44.3 -62.35 44.2 -62.25 44.05 -62.2 44 -62.15 44.8 -62.15 44.8 -62.2 44.65 -62.25 44.6 -62.35 45.05 -63.9Q45.05 -64 45.15 -64L45.3 -64.05 45.3 -64.1 44.6 -64.1Z"/><path fill="#1D1D1B" stroke="none" d="M45.3 -63.6L45.35 -63.55 45.55 -63.85Q45.6 -64 46 -64L45.5 -62.35Q45.5 -62.25 45.4 -62.25L45.2 -62.2 45.2 -62.15 46.05 -62.15 46.1 -62.2 45.9 -62.25Q45.8 -62.25 45.8 -62.35L46.3 -64Q46.7 -64 46.7 -63.9L46.65 -63.6 46.75 -63.6 46.9 -64.15 46.25 -64.1 46.05 -64.1 45.5 -64.15 45.3 -63.6Z"/><path fill="#1D1D1B" stroke="none" d="M47.3 -63.9Q46.85 -63.5 46.85 -62.8 46.85 -62.1 47.45 -62.1 47.95 -62.1 48.2 -62.5L48.2 -62.65 48.15 -62.65Q47.9 -62.2 47.55 -62.2 47.35 -62.2 47.25 -62.35L47.15 -62.75Q47.15 -63.45 47.5 -63.85 47.7 -64.05 47.9 -64.05 48.15 -64.05 48.2 -63.9 48.3 -63.75 48.2 -63.5L48.3 -63.5Q48.3 -63.8 48.5 -64.1L48.4 -64.1 48.3 -63.95Q48.2 -64.15 47.9 -64.15 47.55 -64.15 47.3 -63.9Z"/><path fill="#1D1D1B" stroke="none" d="M50.3 -63.9Q50.3 -64 50.5 -64.05L50.55 -64.1 49.85 -64.1 49.8 -64.05 50 -63.95 49.8 -63.2 49.05 -63.2 49.3 -63.9Q49.3 -64 49.5 -64.05L49.55 -64.1 48.8 -64.1 48.8 -64.05Q49 -64 49 -63.9L48.55 -62.35Q48.5 -62.25 48.3 -62.2L48.25 -62.15 49 -62.15 49.05 -62.2Q48.8 -62.25 48.85 -62.35L49.05 -63.1 49.75 -63.1 49.55 -62.35Q49.55 -62.25 49.3 -62.2L49.3 -62.15 50.05 -62.15 50.05 -62.2Q49.8 -62.25 49.85 -62.35L50.05 -63.15Q50.2 -63.75 50.3 -63.9Z"/><path fill="#1D1D1B" stroke="none" d="M51.2 -63.95L51.25 -64 51.45 -64Q51.75 -64 51.75 -63.85L51.75 -63.6 51.8 -63.6 51.95 -64.1 50.7 -64.1 50.65 -64.05 50.85 -64 50.9 -63.95 50.45 -62.35 50.35 -62.25 50.15 -62.2 50.15 -62.15 51.5 -62.15 51.75 -62.65 51.65 -62.65 51.4 -62.35Q51.3 -62.25 50.95 -62.25 50.7 -62.25 50.75 -62.3L50.95 -63.1 51.15 -63.1Q51.35 -63.1 51.35 -62.8L51.4 -62.8 51.6 -63.45 51.55 -63.45Q51.45 -63.2 51.2 -63.2L50.95 -63.2 51.2 -63.95Z"/><path fill="#1D1D1B" stroke="none" d="M52.8 -64.1L52.3 -64.1 52.3 -64.05 52.45 -64 52.55 -63.9 52.1 -62.35Q52 -62.25 51.95 -62.25L51.8 -62.2 51.8 -62.15 52.45 -62.15 52.5 -62.2 52.3 -62.25 52.25 -62.4 52.6 -63.8 53.1 -62.1 53.3 -62.15 53.8 -63.9Q53.8 -64 53.9 -64L54.05 -64.05 54.05 -64.1 53.4 -64.1 53.4 -64.05 53.55 -64Q53.65 -64 53.65 -63.9L53.3 -62.55 52.8 -64.1Z"/><path fill="#1D1D1B" stroke="none" d="M54.85 -61.4L54.85 -64.55 54.65 -64.55 54.65 -61.4 54.85 -61.4Z"/><path fill="#1D1D1B" stroke="none" d="M55.65 -64.1L55.6 -64.05 55.75 -64 55.85 -63.95 55.8 -62.1 55.85 -62.1 56 -62.15 57.1 -63.85Q57.15 -64 57.4 -64.05L57.4 -64.1 56.8 -64.1 56.75 -64.05 56.95 -64Q57 -64 56.95 -63.9L56.1 -62.45 56.1 -63.95 56.35 -64.05 56.35 -64.1 55.65 -64.1Z"/><path fill="#1D1D1B" stroke="none" d="M57.45 -64.1L57.4 -64.05 57.55 -64 57.65 -63.95 57.15 -62.35Q57.15 -62.25 57.05 -62.25L56.9 -62.2 56.9 -62.15 58.25 -62.15 58.45 -62.65 58.4 -62.65 58.15 -62.35Q58.05 -62.25 57.65 -62.25 57.45 -62.25 57.45 -62.3L57.65 -63.1 57.9 -63.1Q58.1 -63.1 58.05 -62.8L58.15 -62.8 58.35 -63.45 58.25 -63.45Q58.15 -63.2 57.9 -63.2L57.7 -63.2 57.9 -63.95 58 -64 58.2 -64Q58.45 -64 58.5 -63.85L58.45 -63.6 58.55 -63.6 58.7 -64.1 57.45 -64.1Z"/><path fill="#1D1D1B" stroke="none" d="M60.2 -64L60.25 -63.9 59.9 -62.55 59.4 -64.1 58.95 -64.1 58.9 -64.05 59.1 -64Q59.25 -64 59.15 -63.9L58.7 -62.35 58.6 -62.25 58.45 -62.2 58.45 -62.15 59.1 -62.15 59.1 -62.2 58.95 -62.25Q58.85 -62.25 58.9 -62.4 58.9 -62.75 59.25 -63.8L59.75 -62.1 59.95 -62.15 60.4 -63.9 60.5 -64 60.65 -64.05 60.7 -64.1 60.05 -64.1 60 -64.05 60.2 -64Z"/><path fill="#1D1D1B" stroke="none" d="M60.65 -62.75Q60.55 -62.45 60.7 -62.3 60.75 -62.1 61.15 -62.1 61.45 -62.1 61.55 -62.2 61.7 -62.3 61.9 -62.75L62.2 -63.85Q62.25 -64 62.45 -64.05L62.5 -64.1 61.9 -64.1 61.85 -64.05 62 -64Q62.1 -64 62.1 -63.9L61.8 -62.8Q61.6 -62.25 61.25 -62.25 61 -62.25 60.95 -62.35 60.85 -62.45 60.9 -62.7L61.25 -63.95 61.35 -64 61.5 -64.05 61.5 -64.1 60.8 -64.1 60.8 -64.05 60.95 -64 61 -63.95 60.65 -62.75Z"/><path fill="#1D1D1B" stroke="none" d="M62.65 -64.1L62.6 -64.05 62.8 -64 62.85 -63.95 62.4 -62.35 62.3 -62.25 62.15 -62.2 62.1 -62.15 63.45 -62.15 63.7 -62.65 63.6 -62.65 63.35 -62.35Q63.3 -62.25 62.9 -62.25 62.65 -62.25 62.7 -62.3L62.9 -63.1 63.1 -63.1Q63.3 -63.1 63.3 -62.8L63.35 -62.8 63.55 -63.45 63.5 -63.45Q63.4 -63.2 63.15 -63.2L62.9 -63.2 63.15 -63.95 63.2 -64 63.4 -64Q63.7 -64 63.7 -63.85L63.7 -63.6 63.75 -63.6 63.9 -64.1 62.65 -64.1Z"/><path fill="#1D1D1B" stroke="none" d="M46.5 -56.65Q46.7 -56.65 46.7 -56.5L46.7 -56.3 46.75 -56.3 46.9 -56.75 46.55 -56.7 45.85 -56.7 45.85 -56.65 45.95 -56.65 46 -56.6 45.65 -55.25 45.55 -55.15 45.4 -55.15 45.4 -55.1 46.55 -55.05 46.7 -55.5 46.65 -55.5 46.45 -55.25Q46.25 -55.15 46.05 -55.15 45.85 -55.15 45.9 -55.25L46.05 -55.9 46.25 -55.9Q46.4 -55.9 46.4 -55.65L46.45 -55.65 46.6 -56.15 46.55 -56.15Q46.4 -55.95 46.25 -55.95 46.1 -55.95 46.1 -56L46.25 -56.6 46.3 -56.65 46.5 -56.65Z"/><path fill="#1D1D1B" stroke="none" d="M47.45 -56.25L47.2 -56.15Q47.05 -56.05 47.05 -55.9 47.05 -55.7 47.2 -55.65L47.4 -55.45 47.45 -55.3Q47.45 -55.1 47.25 -55.1 47 -55.1 47 -55.35L47.05 -55.5 47 -55.5 46.85 -55.15 47.2 -55.05Q47.4 -55.05 47.5 -55.15 47.65 -55.2 47.65 -55.4L47.55 -55.65 47.3 -55.8 47.25 -56Q47.25 -56.15 47.45 -56.15 47.65 -56.15 47.6 -55.8L47.65 -55.8 47.8 -56.2 47.75 -56.25 47.65 -56.15 47.45 -56.25Z"/><path fill="#1D1D1B" stroke="none" d="M47.9 -56.2L47.9 -56.1 48.05 -56.1 47.8 -55.3Q47.7 -55.05 47.95 -55.05 48.25 -55.05 48.4 -55.35L48.35 -55.45Q48.25 -55.15 48.05 -55.15L48 -55.25 48.25 -56.1 48.5 -56.1 48.55 -56.2 48.3 -56.2 48.4 -56.55 48.15 -56.5 48.1 -56.2 47.9 -56.2Z"/><path fill="#1D1D1B" stroke="none" d="M48.5 -55.25Q48.5 -55.1 48.6 -55.1 48.8 -55.1 48.8 -55.25 48.8 -55.4 48.65 -55.4 48.5 -55.4 48.5 -55.25Z"/><path fill="#1D1D1B" stroke="none" d="M50.2 -56.55L50.25 -56.5 49.85 -55.2 49.75 -55.15 49.6 -55.15 49.55 -55.1 50.35 -55.1 50.35 -55.15 50.15 -55.15 50.1 -55.2 50.5 -56.7 50 -56.6 49.95 -56.55 50.2 -56.55Z"/><path fill="#1D1D1B" stroke="none" d="M50.85 -56.25L50.95 -56.2 51.05 -56.35Q51.1 -56.45 51.35 -56.45L51.75 -56.45 51 -55.5 50.85 -55.15 50.85 -55.1 51 -55.05Q51.25 -55.65 51.7 -56.2L51.95 -56.65 51.5 -56.65Q51.1 -56.65 51.05 -56.7 51.05 -56.45 50.85 -56.25Z"/><path fill="#1D1D1B" stroke="none" d="M52.9 -56.6L52.95 -56.6 52.95 -56.7 52.85 -56.7Q52.55 -56.7 52.35 -56.5 51.85 -56.15 51.85 -55.5 51.85 -55.05 52.25 -55.05 52.45 -55.05 52.6 -55.2 52.85 -55.35 52.85 -55.75 52.85 -56.1 52.55 -56.1 52.35 -56.1 52.15 -55.9 52.3 -56.6 52.9 -56.6M52.15 -55.75Q52.3 -56 52.45 -56 52.6 -56 52.6 -55.75L52.5 -55.25 52.25 -55.1Q52.05 -55.1 52.05 -55.4L52.15 -55.75Z"/><path fill="#1D1D1B" stroke="none" d="M54.1 -56.6L54.1 -56.7 54 -56.7Q53.7 -56.7 53.45 -56.5 53 -56.1 53 -55.5 53 -55.05 53.4 -55.05 53.6 -55.05 53.75 -55.2 54 -55.35 54 -55.75 54 -56.1 53.7 -56.1 53.5 -56.1 53.3 -55.9 53.45 -56.6 54.05 -56.6L54.1 -56.6M53.6 -56Q53.75 -56 53.75 -55.75 53.75 -55.4 53.6 -55.25 53.55 -55.1 53.4 -55.1 53.2 -55.1 53.2 -55.4L53.3 -55.75Q53.45 -56 53.6 -56Z"/><path fill="#1D1D1B" stroke="none" d="M35.5 -81.1Q35.65 -81.75 36.1 -81.75 36.45 -81.75 36.6 -81.4 36.7 -81.05 36.7 -80L37.75 -80.1Q37.85 -82.8 36.2 -82.8 34.15 -82.8 34.15 -78.9 34.15 -76.9 34.5 -76.05 34.85 -75.15 35.8 -75.15 36.55 -75.15 36.9 -75.85L36.95 -75.2 37.85 -75.2 37.85 -78.9 36.1 -78.9 36.1 -77.9 36.85 -77.9 36.85 -77.3Q36.8 -76.1 36.15 -76.1 35.65 -76.1 35.5 -76.7 35.35 -77.25 35.35 -78.95 35.35 -80.55 35.5 -81.1Z"/><path fill="#1D1D1B" stroke="none" d="M41.6 -75.25L41.6 -76.3 39.6 -76.3 39.6 -78.5 41.25 -78.5 41.25 -79.55 39.6 -79.55 39.6 -81.6 41.4 -81.6 41.4 -82.65 38.45 -82.65 38.45 -75.25 41.6 -75.25Z"/><path fill="#1D1D1B" stroke="none" d="M43.85 -82.8Q42.8 -82.8 42.35 -81.85 41.95 -80.95 41.95 -78.95 41.95 -76.9 42.25 -76.1 42.65 -75.15 43.7 -75.15 44.8 -75.15 45.2 -76.1 45.6 -77 45.6 -79.1 45.6 -81.1 45.3 -81.85 44.95 -82.8 43.85 -82.8M43.8 -81.75Q44.2 -81.75 44.3 -81.15 44.4 -80.65 44.4 -79 44.4 -77.25 44.3 -76.75 44.2 -76.1 43.75 -76.1 43.35 -76.1 43.25 -76.7 43.15 -77.25 43.15 -78.95 43.15 -80.6 43.25 -81.1 43.4 -81.75 43.8 -81.75Z"/><path fill="#1D1D1B" stroke="none" d="M47.4 -82.65L46.2 -82.65 46.2 -75.25 47.3 -75.25 47.3 -78.45 47.75 -78.45 48.75 -75.25 49.95 -75.25 48.75 -78.7Q49.65 -79.2 49.65 -80.65 49.65 -82.65 47.4 -82.65M47.3 -81.6L47.65 -81.6Q48.5 -81.6 48.5 -80.55 48.5 -79.45 47.5 -79.45L47.3 -79.45 47.3 -81.6Z"/><path fill="#1D1D1B" stroke="none" d="M50.15 -78.9Q50.15 -76.9 50.5 -76.05 50.85 -75.15 51.8 -75.15 52.55 -75.15 52.9 -75.85L52.95 -75.2 53.85 -75.2 53.85 -78.9 52.1 -78.9 52.1 -77.9 52.85 -77.9 52.85 -77.3Q52.8 -76.1 52.15 -76.1 51.7 -76.1 51.55 -76.7 51.35 -77.3 51.35 -78.95 51.35 -80.55 51.5 -81.1 51.65 -81.75 52.1 -81.75 52.45 -81.75 52.6 -81.4 52.7 -81.05 52.7 -80L53.8 -80.1Q53.8 -81.5 53.5 -82.1 53.1 -82.8 52.2 -82.8 50.15 -82.8 50.15 -78.9Z"/><path fill="#1D1D1B" stroke="none" d="M56 -81.7L56.55 -81.7 56.55 -82.65 54.3 -82.65 54.3 -81.7 54.85 -81.7 54.85 -76.2 54.3 -76.2 54.3 -75.25 56.55 -75.25 56.55 -76.2 56 -76.2 56 -81.7Z"/><path fill="#1D1D1B" stroke="none" d="M59.65 -82.65L58.1 -82.65 56.85 -75.25 58 -75.25 58.25 -77.05 59.5 -77.05 59.8 -75.25 61 -75.25 59.65 -82.65M58.85 -81.35L58.9 -81.35 59.35 -78.1 58.4 -78.1 58.85 -81.35Z"/><path fill="#1D1D1B" stroke="none" d="M62.85 -82.65L61.45 -82.65 61.45 -75.25 62.5 -75.25 62.5 -80.35 62.55 -80.35 64 -75.25 65.3 -75.25 65.3 -82.65 64.2 -82.65 64.2 -77.75 62.85 -82.65Z"/><path fill="#1D1D1B" stroke="none" d="M42.6 -73.25L43.6 -73.25 43.6 -67.8 44.6 -67.8 44.6 -73.25 45.6 -73.25 45.6 -74.2 42.6 -74.2 42.6 -73.25Z"/><path fill="#1D1D1B" stroke="none" d="M49 -74.2L48 -74.2 48 -71.5 46.95 -71.5 46.95 -74.2 45.95 -74.2 45.95 -67.8 46.95 -67.8 46.95 -70.55 48 -70.55 48 -67.8 49 -67.8 49 -74.2Z"/><path fill="#1D1D1B" stroke="none" d="M52.35 -67.8L52.35 -68.7 50.6 -68.7 50.6 -70.6 52.05 -70.6 52.05 -71.5 50.6 -71.5 50.6 -73.25 52.2 -73.25 52.2 -74.2 49.65 -74.2 49.65 -67.8 52.35 -67.8Z"/><path fill="#1D1D1B" stroke="none" d="M54.9 -74.2L53.6 -74.2 52.45 -67.8 53.5 -67.8 53.7 -69.35 54.75 -69.35 55 -67.8 56.05 -67.8 54.9 -74.2M54.65 -70.25L53.8 -70.25 54.25 -73.05 54.65 -70.25Z"/><path fill="#1D1D1B" stroke="none" d="M55.7 -73.25L56.7 -73.25 56.7 -67.8 57.65 -67.8 57.65 -73.25 58.7 -73.25 58.7 -74.2 55.7 -74.2 55.7 -73.25Z"/><path fill="#1D1D1B" stroke="none" d="M60.05 -74.2L59 -74.2 59 -67.8 60 -67.8 60 -70.55 60.35 -70.55 61.25 -67.8 62.25 -67.8 61.2 -70.8Q62 -71.25 62 -72.45 62 -74.2 60.05 -74.2M60 -73.25L60.3 -73.25Q61 -73.25 61 -72.4 61 -71.4 60.1 -71.4L60 -71.4 60 -73.25Z"/><path fill="#1D1D1B" stroke="none" d="M63.65 -73.25L65.2 -73.25 65.2 -74.2 62.65 -74.2 62.65 -67.8 65.4 -67.8 65.4 -68.7 63.65 -68.7 63.65 -70.6 65.05 -70.6 65.05 -71.5 63.65 -71.5 63.65 -73.25Z"/><path fill="#1D1D1B" stroke="none" d="M39.1 -83.8L39.1 -86.95 39.65 -86.95 39.65 -87.45 37.95 -87.45 37.95 -86.95 38.55 -86.95 38.55 -83.8 39.1 -83.8Z"/><path fill="#1D1D1B" stroke="none" d="M41.65 -87.45L41.1 -87.45 41.1 -85.9 40.5 -85.9 40.5 -87.45 39.95 -87.45 39.95 -83.8 40.5 -83.8 40.5 -85.35 41.1 -85.35 41.1 -83.8 41.65 -83.8 41.65 -87.45Z"/><path fill="#1D1D1B" stroke="none" d="M43.5 -87.45L42.05 -87.45 42.05 -83.8 43.6 -83.8 43.6 -84.3 42.6 -84.3 42.6 -85.4 43.4 -85.4 43.4 -85.9 42.6 -85.9 42.6 -86.95 43.5 -86.95 43.5 -87.45Z"/><path id="Layer51_0_1_STROKES" stroke="#1D1D1B" stroke-width=".15" stroke-linejoin="miter" stroke-linecap="butt" stroke-miterlimit="4" fill="none" d="M34.25 -65.4L65.35 -65.4"/></g><g id="steam-copy-2" transform="translate(94 67.55)"><g mask="url(#mask_1)" id="Layer2_0_FILL"><path fill="#F2F2F2" stroke="none" d="M26.3 -29.3Q24.85 -32.55 24.85 -34 24.8 -33.3 24.8 -31.8 24.75 -29.7 24.1 -28.1 21.95 -22.95 12 -18.25 3.45 -14.1 1.05 -8.1 .5 -6.6 .35 -4.2 .1 -.4 .05 -.2L0 0Q2.35 -4.85 10.4 -8.1 21.25 -12.45 22.95 -13.7 27.65 -17.15 28.05 -23.65 28.15 -25.2 26.3 -29.3Z"/></g><mask id="mask_1"><g filter="url(#filter3)"><use xlink:href="#Symbol-1" transform="translate(-4.4 -81.75)"><animateTransform attributeName="transform" additive="replace" type="translate" repeatCount="indefinite" dur="2.917s" keyTimes="0;.386;.4;.414;.429;.443;.457;.471;.486;.5;.514;.529;.543;.557;.571;.586;.6;.614;.628;.643;.657;.671;.686;.7;.714;.728;.743;.757;.771;.786;.8;.814;.828;.843;.857;.871;.886;.9;.914;.928;.943;.957;.971;.986;1" values="-4.4,-34.1;-4.4,-34.1;-4.4,-35.7;-4.4,-37.3;-4.4,-38.9;-4.4,-40.55;-4.4,-42.15;-4.4,-43.75;-4.4,-45.4;-4.4,-47;-4.4,-48.6;-4.4,-50.25;-4.4,-51.85;-4.4,-53.45;-4.4,-55.05;-4.4,-56.7;-4.4,-58.3;-4.4,-59.9;-4.4,-61.55;-4.4,-63.15;-4.4,-64.75;-4.4,-66.4;-4.4,-68;-4.4,-69.6;-4.4,-71.25;-47.4,-65.65;-44.3,9.35;-4.3,9.6;-4.3,3.85;-4.3,-1.85;-4.3,-7.55;-4.3,-13.25;-4.35,-18.95;-4.35,-24.7;-4.35,-30.4;-4.35,-36.05;-4.35,-41.75;-4.35,-47.45;-4.4,-53.2;-4.4,-58.9;-4.4,-64.6;-4.4,-70.3;-4.4,-76;-4.4,-81.75;-4.4,-81.75"/></use></g></mask></g><g id="steam-copy" transform="translate(85.4 59)"><g mask="url(#mask_)" id="Layer1_0_FILL"><path fill="#F2F2F2" stroke="none" d="M26.3 -29.3Q24.85 -32.55 24.85 -34 24.8 -33.3 24.8 -31.8 24.75 -29.7 24.1 -28.1 21.95 -22.95 12 -18.25 3.45 -14.1 1.05 -8.1 .5 -6.6 .35 -4.2 .1 -.4 .05 -.2L0 0Q2.35 -4.85 10.4 -8.1 21.25 -12.45 22.95 -13.7 27.65 -17.15 28.05 -23.65 28.15 -25.2 26.3 -29.3Z"/></g><mask id="mask_"><g filter="url(#filter3)"><use xlink:href="#Symbol-1" transform="translate(-4.4 -81.75)"><animateTransform attributeName="transform" additive="replace" type="translate" repeatCount="indefinite" dur="2.292s" keyTimes="0;.327;.345;.364;.382;.4;.418;.436;.454;.473;.491;.509;.527;.545;.564;.582;.6;.618;.636;.654;.673;.691;.709;.727;.745;.764;.782;.8;.818;.836;.854;.873;.891;.909;.927;.945;.963;.982;1" values="-4.4,-34.1;-4.4,-34.1;-4.4,-35.85;-4.4,-37.6;-4.4,-39.4;-4.4,-41.15;-4.4,-42.9;-4.4,-44.7;-4.4,-46.45;-4.4,-48.25;-4.4,-50;-4.4,-51.75;-4.4,-53.55;-4.4,-55.3;-4.4,-57.05;-4.4,-58.85;-4.4,-60.6;-4.4,-62.4;-4.4,-64.15;-4.4,-65.9;-4.4,-67.7;-4.4,-69.45;-4.4,-71.25;-47.4,-65.65;-44.3,9.35;-4.3,9.6;-4.3,1.95;-4.3,-5.65;-4.3,-13.25;-4.35,-20.85;-4.35,-28.5;-4.35,-36.05;-4.35,-43.65;-4.4,-51.25;-4.4,-58.9;-4.4,-66.5;-4.4,-74.1;-4.4,-81.75;-4.4,-81.75"/></use></g></mask></g></g></svg>