<svg xmlns="http://www.w3.org/2000/svg" viewBox="0 0 219.71 219.71"><defs><style>.cls-1,.cls-2{fill:#fff;}.cls-1,.cls-2,.cls-4{stroke:#1d1d1b;}.cls-1{stroke-width:3.2px;}.cls-2{stroke-width:0.79px;}.cls-3{fill:#1d1d1b;}.cls-4{fill:none;stroke-width:0.8px;}</style></defs><title>logo</title><g id="Layer_2" data-name="Layer 2"><g id="ART"><polygon class="cls-1" points="65.01 1.6 154.69 1.6 218.11 65.01 218.11 154.69 154.69 218.11 65.01 218.11 1.6 154.69 1.6 65.01 65.01 1.6"/><polygon class="cls-2" points="67.62 7.9 152.08 7.9 211.8 67.62 211.8 152.08 152.08 211.8 67.62 211.8 7.9 152.08 7.9 67.62 67.62 7.9"/><path class="cls-3" d="M40.87,160.13c.35,0,1.29,0,1.72,0,.62,0,1,0,1.86,0,1.24,0,1.76.22,2.11.6a1.76,1.76,0,0,1,.41,1.21,2.51,2.51,0,0,1-1.68,2.5,4.66,4.66,0,0,1-1.19.3v.06a2.72,2.72,0,0,1,1.75.78A1.9,1.9,0,0,1,46.3,167a3,3,0,0,1-1.83,2.78,5.65,5.65,0,0,1-2.34.41c-.78,0-1.49,0-2.24,0-.54,0-1.27,0-1.72,0l.13-.41c1-.08,1.11-.17,1.19-.41.45-1.24.87-2.73,1.34-4.34.37-1.3.83-2.91,1.1-4.05.06-.26-.08-.3-1.21-.38Zm3.93,6.53a1.8,1.8,0,0,0-.25-1c-.27-.4-.78-.65-1.76-.65a3.94,3.94,0,0,0-.62,0c-.38,1.4-.91,3.18-1.16,4.39,0,.14.08.27.89.27a2.79,2.79,0,0,0,2.91-3Zm.78-4.82a1.54,1.54,0,0,0-.21-.78c-.19-.29-.52-.48-1.37-.48-.46,0-.56.08-.6.26-.27.73-.83,2.73-1.1,3.7.11,0,.35,0,.59,0a2.6,2.6,0,0,0,2.69-2.7Z"/><path class="cls-3" d="M54.44,160c-.06.89-.13,3.46-.14,5.59s0,3.1,0,3.66c0,.25.13.35.37.38l.79.1-.06.43c-.38,0-1.14,0-1.88,0s-1.34,0-1.86,0l.11-.43c.91-.08,1-.14,1-.64.06-1.1.08-2.11.1-3a16.65,16.65,0,0,0-2.75.17c-.76,1.3-1.29,2.27-1.45,2.64-.3.67-.13.76,1,.84l-.1.43c-.49,0-1.18,0-1.67,0-.75,0-1.29,0-1.65,0l.1-.43c.84-.08,1.06-.18,1.62-1,.94-1.48,4.21-6.74,4.8-7.72a1.74,1.74,0,0,0,.25-.52l0-.14a2.37,2.37,0,0,0,1.19-.33Zm-1.35,1.43c-.59,1-1.19,1.92-2.53,4.23a23.55,23.55,0,0,1,2.38-.13C53,164.39,53,162.84,53.09,161.42Z"/><path class="cls-3" d="M57.92,160.13c.33,0,1.13,0,1.69,0s1.1,0,1.92,0a2.62,2.62,0,0,1,2,.54,1.78,1.78,0,0,1,.51,1.38c0,1.75-1.34,2.69-3.16,2.92l0,.06c1.56.32,1.94,1,1.88,2a4.08,4.08,0,0,1-.22,1.51c-.16.75-.06,1.19.64,1.22l.45,0-.18.45a5.89,5.89,0,0,1-.92.08c-1.49,0-1.7-.78-1.45-1.92.13-.49.22-.94.3-1.3.24-1.27-.38-1.62-1.35-1.68a3.5,3.5,0,0,0-.89,0c-.72,2.54-.92,3.27-1,3.86-.08.37,0,.45.32.48l.78.1-.14.41c-.38,0-1.26,0-2,0s-1.38,0-1.84,0l.16-.43.52-.06c.45,0,.56-.14.7-.54s.6-1.84,1.27-4.18.94-3.34,1.06-3.85c.08-.33,0-.41-.33-.45l-.86-.1Zm3,.48a.44.44,0,0,0-.49.32c-.14.37-.27.87-1.15,3.85a3.61,3.61,0,0,0,.43,0A2.7,2.7,0,0,0,62.59,162a1.46,1.46,0,0,0-.27-.94,1.34,1.34,0,0,0-1.1-.41Z"/><path class="cls-3" d="M68.74,158.18v15.89h-1V158.18Z"/><path class="cls-3" d="M74.61,160.13c.49,0,1.21,0,1.78,0,.73,0,1.32,0,1.8,0l-.11.43-.57.06c-.33,0-.46.1-.57.37-.17.49-.6,1.86-1.14,3.83,1.08-.4,3.8-3.07,4.47-3.91.13-.14.06-.24-.11-.25l-.75-.08.14-.43c.49,0,1,0,1.64,0s1.13,0,1.51,0l-.13.43a2.47,2.47,0,0,0-1.61.57c-.67.54-2.24,2-3.7,3.31a51.91,51.91,0,0,0,2.16,4.85c.14.29.37.38,1.27.45l-.16.41a9.53,9.53,0,0,0-1.38,0,6.09,6.09,0,0,0-1,.11c-.19-.67-1.43-3.37-1.94-4.74-.13-.33-.22-.43-.51-.3-.48,1.72-.87,3.16-1.06,4,0,.27,0,.35.35.38l.68.06-.16.43c-.38,0-1.29,0-2,0s-1.29,0-1.72,0l.13-.43.62-.08a.55.55,0,0,0,.57-.45c.24-.67.57-1.73,1.27-4.18.46-1.65.92-3.27,1.08-4,.06-.3,0-.41-.35-.43l-.68-.06Z"/><path class="cls-3" d="M83.32,160.13c.6,0,1.24,0,1.84,0s1.37,0,1.84,0l-.13.43-.67.06c-.29,0-.4.14-.52.49-.19.51-.59,1.84-1.19,4s-1,3.5-1.1,4.07c-.06.37,0,.45.3.48l.79.06-.14.43c-.49,0-1.37,0-2,0s-1.34,0-1.81,0l.14-.43.64-.06c.37,0,.49-.13.64-.56s.48-1.45,1.21-4c.67-2.26.94-3.27,1.11-4,.08-.35,0-.46-.3-.49l-.76-.06Z"/><path class="cls-3" d="M87.23,162.72c.25-.52.79-2.08,1-2.75a8.88,8.88,0,0,0,2.91.21h1a11,11,0,0,0,3.24-.19,25.27,25.27,0,0,0-.89,2.73l-.43.11a7.93,7.93,0,0,0,.17-1.67c0-.44-.22-.57-2-.54-.35,1.1-.81,2.75-1.19,4.16-.45,1.62-.91,3.26-1.14,4.39-.08.32,0,.41.27.45.41,0,.65.08,1.06.1l-.14.43c-.49,0-1.49,0-2.26,0s-1.48,0-2.15,0l.13-.43.87-.08a.65.65,0,0,0,.64-.46c.38-1.1.84-2.62,1.37-4.5.46-1.59.91-3.1,1.14-4.05-1.76,0-2,.14-2.42.78a11.58,11.58,0,0,0-.84,1.46Z"/><path class="cls-3" d="M101.88,167.51a7.43,7.43,0,0,1,0,.83,4.41,4.41,0,0,1-3.72,2c-2.15,0-3.12-1.41-3.12-3.5a8.18,8.18,0,0,1,2.35-5.67,4.49,4.49,0,0,1,3.07-1.22,2.38,2.38,0,0,1,2.07.92l.52-.79.32.14a23.61,23.61,0,0,0-1,3.12l-.38,0a3.73,3.73,0,0,0-.13-2.11,1.4,1.4,0,0,0-1.37-.79,2.81,2.81,0,0,0-2.13,1.1A9,9,0,0,0,96.59,167a3.74,3.74,0,0,0,.49,2,1.87,1.87,0,0,0,1.53.76,3.17,3.17,0,0,0,3-2.24Z"/><path class="cls-3" d="M105.1,160.13c.41,0,1.1,0,1.78,0,.49,0,1.25,0,1.86,0l-.11.41c-.83,0-1,.14-1.16.59-.32.89-.73,2.37-1,3.53.27,0,1,0,1.7,0s1.53,0,2,0c.27-1,.81-2.85,1-3.61.06-.38,0-.48-1-.49l.13-.43c.7,0,1.37,0,1.8,0s1.43,0,1.78,0l-.11.43c-.87,0-1,.14-1.19.57-.32.81-.59,1.83-1.16,3.93-.49,1.76-.86,3.08-1,4-.11.49,0,.57,1.13.62l-.16.43c-.44,0-1.32,0-2,0s-1.29,0-1.81,0l.13-.43c.89-.08,1.06-.16,1.24-.73.43-1.45.89-3.08,1.08-3.78-.4,0-1.21,0-2,0s-1.45,0-1.76,0c-.41,1.41-.83,3-1,3.94-.1.46.06.52,1,.57l-.11.43c-.62,0-1.45,0-2,0s-1.29,0-1.8,0l.13-.43c.89,0,1.11-.16,1.27-.57.33-1,.76-2.48,1.24-4.2.54-1.89.89-3.05,1-3.8.11-.48,0-.56-1-.6Z"/><path class="cls-3" d="M114.68,160.13c.54,0,1.4,0,2.13,0H119a20.08,20.08,0,0,0,2-.08,23.65,23.65,0,0,0-.76,2.59l-.37,0a9.69,9.69,0,0,0,.06-1.35c0-.56-.19-.7-1.45-.7h-1.06c-.17,0-.25.06-.32.25-.27.81-.76,2.53-1.1,3.75a8.7,8.7,0,0,0,1.11,0c1,0,1.25-.3,1.7-1.21h.38a24.94,24.94,0,0,0-1,3.32l-.38,0c.16-1.18.13-1.61-.92-1.61a10,10,0,0,0-1.1,0c-.45,1.53-.83,2.92-1.06,4-.08.33-.06.41,1,.41,1.45,0,2-.1,2.43-.51a7.1,7.1,0,0,0,1.22-1.65l.37.13c-.19.45-.89,2.16-1.08,2.59-.49,0-1.41-.1-3.51-.1H113.9c-.78,0-1.59,0-2,0l.13-.43.83-.1c.27,0,.4-.11.52-.51.37-1.11.81-2.57,1.27-4.23s.83-2.92,1-3.88c0-.26,0-.33-.3-.37l-.84-.08Z"/><path class="cls-3" d="M129.32,161.12c0-.32,0-.43-.45-.48l-.76-.08.16-.43c.49,0,1.1,0,1.53,0s1.29-.06,1.69,0l-.14.43a4.78,4.78,0,0,0-.73.1.67.67,0,0,0-.49.45c-.4,1-1.73,5.66-2.48,9a2.84,2.84,0,0,0-1,.18c-.49-1.91-1.78-5.94-2.56-8.63-.83,3.11-1.59,6.09-1.81,7.18-.1.52,0,.68.25.75a7.91,7.91,0,0,0,1,.13l-.13.43c-.59,0-1.34,0-1.84,0s-1.1,0-1.56,0l.14-.43a5.21,5.21,0,0,0,.75-.11c.27,0,.41-.22.6-.65.32-.81,1.51-5.07,2.23-7.74.1-.37,0-.51-.41-.56l-.86-.1.14-.43c.33,0,.89.06,1.48.06a6.05,6.05,0,0,0,1-.06c.64,2.1,1.8,5.79,2.5,8C128.68,164,129.22,162,129.32,161.12Z"/><path class="cls-3" d="M135.61,158.18v15.89h-1V158.18Z"/><path class="cls-3" d="M139.54,160.13c.38,0,1.06,0,1.67,0s1.34,0,1.91,0l-.1.43c-1,.06-1,.16-1.07.49-.06,1.06-.13,4.83-.17,7.53,1.76-2.92,3.13-5,4.39-7.39.21-.38.14-.49-.06-.52s-.59-.08-.92-.11l.13-.43c.29,0,1,0,1.59,0s1,0,1.6,0l-.1.43a1.65,1.65,0,0,0-1.57.91c-1.1,1.62-3.56,5.48-5.36,8.66a2.27,2.27,0,0,0-1,.22l-.08-.06c.08-2.54.14-7.55.1-9.28,0-.24-.08-.33-.4-.37l-.7-.08Z"/><path class="cls-3" d="M148.63,160.13c.54,0,1.4,0,2.13,0H153a20.08,20.08,0,0,0,2-.08,23.65,23.65,0,0,0-.76,2.59l-.37,0a9.69,9.69,0,0,0,.06-1.35c0-.56-.19-.7-1.45-.7h-1.06c-.17,0-.25.06-.32.25-.27.81-.76,2.53-1.1,3.75a8.7,8.7,0,0,0,1.11,0c1,0,1.25-.3,1.7-1.21h.38a24.94,24.94,0,0,0-1,3.32l-.38,0c.16-1.18.13-1.61-.92-1.61a10,10,0,0,0-1.1,0c-.45,1.53-.83,2.92-1.06,4-.08.33-.06.41,1,.41,1.45,0,2-.1,2.43-.51a7.1,7.1,0,0,0,1.22-1.65l.37.13c-.19.45-.89,2.16-1.08,2.59-.49,0-1.41-.1-3.51-.1h-1.41c-.78,0-1.59,0-2,0l.13-.43.83-.1c.27,0,.4-.11.52-.51.37-1.11.81-2.57,1.27-4.23s.83-2.92,1-3.88c0-.26,0-.33-.3-.37l-.84-.08Z"/><path class="cls-3" d="M163.27,161.12c0-.32,0-.43-.45-.48l-.76-.08.16-.43c.49,0,1.1,0,1.53,0s1.29-.06,1.69,0l-.14.43a4.78,4.78,0,0,0-.73.1.67.67,0,0,0-.49.45c-.4,1-1.73,5.66-2.48,9a2.84,2.84,0,0,0-1,.18c-.49-1.91-1.78-5.94-2.56-8.63-.83,3.11-1.59,6.09-1.81,7.18-.1.52,0,.68.25.75a7.91,7.91,0,0,0,1,.13l-.13.43c-.59,0-1.34,0-1.84,0s-1.1,0-1.56,0l.14-.43a5.21,5.21,0,0,0,.75-.11c.27,0,.41-.22.6-.65.32-.81,1.51-5.07,2.23-7.74.1-.37,0-.51-.41-.56l-.86-.1.14-.43c.33,0,.89.06,1.48.06a6.05,6.05,0,0,0,1-.06c.64,2.1,1.8,5.79,2.5,8C162.63,164,163.17,162,163.27,161.12Z"/><path class="cls-3" d="M174.47,160.56c-1,.06-1,.16-1.27.81-.45,1.41-1.14,4-1.64,5.69a4.37,4.37,0,0,1-1.76,2.81,3.93,3.93,0,0,1-2.08.48,2.75,2.75,0,0,1-2.32-1,2.94,2.94,0,0,1-.17-2.43c.4-1.51,1.49-5.15,1.67-6,.06-.22,0-.33-.21-.35l-.81-.1.16-.41c.6,0,1.22,0,1.86,0s1.21,0,1.73,0l-.11.41-.68.1a.45.45,0,0,0-.45.35,62.91,62.91,0,0,0-1.8,6.29,2,2,0,0,0,.24,1.84,1.86,1.86,0,0,0,1.43.57c1.34,0,2.11-.56,2.8-2.89.6-2,1.22-4.47,1.43-5.53.1-.51,0-.6-.37-.64l-.76-.1.14-.41c.41,0,1.06,0,1.54,0s1,0,1.54,0Z"/><path class="cls-3" d="M175.15,160.13c.54,0,1.4,0,2.13,0h2.21a20.08,20.08,0,0,0,2-.08,23.65,23.65,0,0,0-.76,2.59l-.37,0a9.69,9.69,0,0,0,.06-1.35c0-.56-.19-.7-1.45-.7h-1.06c-.17,0-.25.06-.32.25-.27.81-.76,2.53-1.1,3.75a8.7,8.7,0,0,0,1.11,0c1,0,1.25-.3,1.7-1.21h.38a24.94,24.94,0,0,0-1,3.32l-.38,0c.16-1.18.13-1.61-.92-1.61a10,10,0,0,0-1.1,0c-.45,1.53-.83,2.92-1.06,4-.08.33-.06.41,1,.41,1.45,0,2-.1,2.43-.51a7.1,7.1,0,0,0,1.22-1.65l.37.13c-.19.45-.89,2.16-1.08,2.59-.49,0-1.41-.1-3.51-.1h-1.41c-.78,0-1.59,0-2,0l.13-.43.83-.1c.27,0,.4-.11.52-.51.37-1.11.81-2.57,1.27-4.23s.83-2.92,1-3.88c0-.26,0-.33-.3-.37l-.84-.08Z"/><path class="cls-3" d="M90,197.66c.45,0,1.17,0,1.78,0h1.84a17,17,0,0,0,1.7-.07,19.59,19.59,0,0,0-.64,2.16h-.31a7.84,7.84,0,0,0,.05-1.13c0-.46-.16-.58-1.21-.58h-.89c-.15,0-.21.05-.26.21-.23.68-.64,2.11-.92,3.13a7.43,7.43,0,0,0,.93,0c.86,0,1-.25,1.42-1h.32a21,21,0,0,0-.8,2.77h-.32c.13-1,.11-1.34-.77-1.34a8.54,8.54,0,0,0-.92,0c-.37,1.27-.69,2.44-.89,3.34-.07.28-.05.35.88.35,1.21,0,1.65-.08,2-.42a5.91,5.91,0,0,0,1-1.38l.31.11c-.16.37-.74,1.81-.9,2.16-.41,0-1.18-.08-2.93-.08H89.4c-.65,0-1.33,0-1.69,0l.11-.36.69-.08c.22,0,.33-.09.44-.42.3-.93.68-2.15,1.06-3.53s.69-2.44.88-3.24c0-.21,0-.28-.25-.31l-.7-.07Z"/><path class="cls-3" d="M99.65,200.25a14.64,14.64,0,0,0-.69,2h-.31c.21-1.09-.09-1.73-.86-1.73a.88.88,0,0,0-.89.94,1,1,0,0,0,.35.77c.27.25.82.7,1.13,1a1.42,1.42,0,0,1,.53,1.17,1.74,1.74,0,0,1-.64,1.3,2.4,2.4,0,0,1-1.58.5,3.36,3.36,0,0,1-1.76-.5c.15-.35.38-1.09.6-1.85l.35-.05a4.25,4.25,0,0,0-.15.86,1,1,0,0,0,1.18,1.15,1,1,0,0,0,1-.92.93.93,0,0,0-.35-.76c-.24-.24-.65-.61-1-.92A1.6,1.6,0,0,1,96,202a1.8,1.8,0,0,1,.62-1.38,2,2,0,0,1,1.31-.44,1.48,1.48,0,0,1,1.13.44l.33-.47Z"/><path class="cls-3" d="M102.87,204.69a2.56,2.56,0,0,1-2.14,1.49c-1,0-.92-.66-.7-1.38.37-1.25.92-3,1.18-4l-.86-.08.17-.38h.84c.2-.61.36-1.17.47-1.57a8.4,8.4,0,0,0,1.22-.28c-.12.25-.41,1.12-.64,1.84h1.37l-.2.38-1.3.08c-.27.78-1,3.38-1.27,4.35-.07.29,0,.46.23.46.58,0,1.21-.8,1.47-1.41Z"/><path class="cls-3" d="M103.82,206.17c-.36,0-.61-.28-.6-.73a.9.9,0,0,1,.84-.9c.41,0,.65.32.62.77a.84.84,0,0,1-.85.86Z"/><path class="cls-3" d="M112.65,206c-1,0-1.59,0-2.07,0s-1.1,0-2,0l.13-.36.93-.08c.33,0,.42-.08.52-.29.17-.44.46-1.39,1-3.33.3-1.08.62-2.16.92-3.28,0-.12,0-.19-.12-.19s-.81,0-1.33,0l.19-.36a19.22,19.22,0,0,0,2.6-.4l.05,0c-.33.94-.78,2.6-1.22,4.13-.57,2.1-.78,2.84-.88,3.36,0,.2,0,.27.24.28l1.1.08Z"/><path class="cls-3" d="M115.56,200.17a12.84,12.84,0,0,0,.86-2.34,7.74,7.74,0,0,0,2.43.12c1.53,0,1.82,0,2.1,0l0,.09a17,17,0,0,1-1.34,2.19,18.32,18.32,0,0,0-3.34,5.91l-.05,0a1.36,1.36,0,0,1-.69-.16.43.43,0,0,1-.18-.45,5.77,5.77,0,0,1,.93-1.66c.94-1.46,2.71-3.49,3.68-4.92-.38,0-1.1,0-1.87,0-1.38,0-1.47.11-1.74.52a9.46,9.46,0,0,0-.49.84Z"/><path class="cls-3" d="M126.17,198.21a2.71,2.71,0,0,0-.35,0c-1.57,0-3.23,1.49-3.85,3.68a3.19,3.19,0,0,1,2.08-1c.92,0,1.57.69,1.57,1.87a3.63,3.63,0,0,1-1.19,2.72,2.79,2.79,0,0,1-1.92.73c-1.41,0-2-1-2-2.31a6.62,6.62,0,0,1,2.47-5.07,4.71,4.71,0,0,1,2.77-1,1.46,1.46,0,0,1,.45.05Zm-2.61,3.23a1.94,1.94,0,0,0-1.57,1.08,3.58,3.58,0,0,0-.4,1.79c0,.94.38,1.49,1,1.49a1.33,1.33,0,0,0,1.12-.62,4.42,4.42,0,0,0,.73-2.47c0-.65-.22-1.26-.87-1.26Z"/><path class="cls-3" d="M132,198.21a2.71,2.71,0,0,0-.35,0c-1.57,0-3.23,1.49-3.85,3.68a3.19,3.19,0,0,1,2.08-1c.92,0,1.57.69,1.57,1.87a3.63,3.63,0,0,1-1.19,2.72,2.79,2.79,0,0,1-1.92.73c-1.41,0-2-1-2-2.31a6.62,6.62,0,0,1,2.47-5.07,4.71,4.71,0,0,1,2.77-1,1.46,1.46,0,0,1,.45.05Zm-2.61,3.23a1.94,1.94,0,0,0-1.57,1.08,3.58,3.58,0,0,0-.4,1.79c0,.94.38,1.49,1,1.49a1.33,1.33,0,0,0,1.12-.62,4.42,4.42,0,0,0,.73-2.47c0-.65-.22-1.26-.87-1.26Z"/><path class="cls-3" d="M44.61,103.75l-.31-3.28a6.08,6.08,0,0,1-5.64,3.69c-6.66,0-8.25-6.25-8.25-19.21,0-12.76,2.46-19.67,10.3-19.67,6.51,0,8.25,4.92,8,13.73l-5.48.46c-.05-6.92-.46-9.07-3-9.07-3.13,0-3.79,4-3.79,14.45,0,11.22.87,14.5,4,14.5,2.15,0,3.38-1.94,3.53-6.3V90H40.25v-5h8.81v18.7Z"/><path class="cls-3" d="M66.59,86.95h-8.4V98.22H68.53v5.33h-16V65.94h15v5.33H58.19V81.72h8.4Z"/><path class="cls-3" d="M70,84.74c0-13.06,2.36-19.47,9.68-19.47,7.79,0,8.71,6.25,8.71,18.7,0,13.68-1.9,20.19-9.58,20.19C71.3,104.16,70,97.81,70,84.74Zm12.45-.31c0-10.35-.31-13.88-3-13.88-3,0-3.43,3.84-3.43,14.09,0,11.07.26,14.5,3.23,14.5S82.47,95.3,82.47,84.44Z"/><path class="cls-3" d="M99.74,87.25H97.49v16.29H91.75V65.94h6c7.69,0,11.63,2.87,11.63,10.14,0,4.61-1.49,8-4.76,9.84l6.3,17.62h-6.15Zm-1.44-5.07c3.59,0,5.28-1.44,5.28-5.69,0-3.84-1.74-5.12-4.3-5.12H97.49V82.18Z"/><path class="cls-3" d="M125.92,103.75l-.31-3.28a6.08,6.08,0,0,1-5.64,3.69c-6.66,0-8.25-6.25-8.25-19.21,0-12.76,2.46-19.67,10.3-19.67,6.51,0,8.25,4.92,8,13.73l-5.48.46c0-6.92-.46-9.07-3-9.07-3.13,0-3.79,4-3.79,14.45,0,11.22.87,14.5,4,14.5,2.15,0,3.38-1.94,3.53-6.3V90h-3.74v-5h8.81v18.7Z"/><path class="cls-3" d="M141.55,98.68h3v4.87H132.89V98.68h2.92V70.81h-2.87V65.94h11.53v4.87h-2.92Z"/><path class="cls-3" d="M160.15,65.94l6.87,37.6h-6.2l-1.44-9.17h-6.25l-1.38,9.17h-5.94l6.56-37.6Zm-3.74,6.66h-.26L153.7,89.15h5Z"/><path class="cls-3" d="M182.18,103.55l-7.38-26h-.15v26h-5.43V65.94h7.17l6.81,25h.15v-25h5.38v37.6Z"/><path class="cls-3" d="M78.66,113.59H73.53V109H88.75v4.6H83.62v27.87h-5Z"/><path class="cls-3" d="M106,141.45h-4.91v-14H95.6v14h-5V109h5v13.62h5.49V109H106Z"/><path class="cls-3" d="M121.44,127.12h-7.25v9.73h8.94v4.6H109.27V109h13v4.6h-8.05v9h7.25Z"/><path class="cls-3" d="M136.3,109l5.93,32.47h-5.35l-1.24-7.92h-5.4L129,141.45h-5.13L129.58,109Zm-3.23,5.75h-.22L130.73,129h4.33Z"/><path class="cls-3" d="M145.15,113.59H140V109h15.22v4.6H150.1v27.87h-5Z"/><path class="cls-3" d="M164,127.39h-1.95v14.07h-5V109h5.22c6.63,0,10,2.48,10,8.76,0,4-1.28,6.94-4.11,8.49l5.44,15.22h-5.31ZM162.8,123c3.1,0,4.56-1.24,4.56-4.91,0-3.32-1.5-4.42-3.72-4.42h-1.55V123Z"/><path class="cls-3" d="M187.61,127.12h-7.25v9.73h8.93v4.6H175.45V109h13v4.6h-8v9h7.25Z"/><path class="cls-3" d="M52.83,44.11h-3V41.46h8.76v2.65h-3v16H52.83Z"/><path class="cls-3" d="M68.57,60.16H65.74v-8H62.58v8H59.73V41.46h2.85v7.84h3.16V41.46h2.83Z"/><path class="cls-3" d="M77.45,51.9H73.27v5.61h5.15v2.65h-8V41.46h7.46v2.65H73.27v5.2h4.18Z"/><line class="cls-4" x1="30.74" y1="153.69" x2="188.96" y2="153.69"/></g></g></svg>